<?xml version="1.0" standalone="no"?>
<!DOCTYPE svg PUBLIC "-//W3C//DTD SVG 1.1//EN" "http://www.w3.org/Graphics/SVG/1.1/DTD/svg11.dtd" >
<svg xmlns="http://www.w3.org/2000/svg">
<metadata>
Created by FontForge 20120731 at Thu Jul 21 17:24:06 2016
 By admin
</metadata>
<defs>
<font id="iconfont" horiz-adv-x="1024" >
  <font-face 
    font-family="iconfont"
    font-weight="500"
    font-stretch="normal"
    units-per-em="1024"
    panose-1="2 0 6 3 0 0 0 0 0 0"
    ascent="896"
    descent="-128"
    x-height="792"
    bbox="0 -128 1024 896"
    underline-thickness="50"
    underline-position="-100"
    unicode-range="U+0078-E64A"
  />
<missing-glyph horiz-adv-x="374" 
d="M34 0v682h272v-682h-272zM68 34h204v614h-204v-614z" />
    <glyph glyph-name=".notdef" horiz-adv-x="374" 
d="M34 0v682h272v-682h-272zM68 34h204v614h-204v-614z" />
    <glyph glyph-name=".null" horiz-adv-x="0" 
 />
    <glyph glyph-name="nonmarkingreturn" horiz-adv-x="341" 
 />
    <glyph glyph-name="x" unicode="x" horiz-adv-x="1001" 
d="M281 543q-27 -1 -53 -1h-83q-18 0 -36.5 -6t-32.5 -18.5t-23 -32t-9 -45.5v-76h912v41q0 16 -0.5 30t-0.5 18q0 13 -5 29t-17 29.5t-31.5 22.5t-49.5 9h-133v-97h-438v97zM955 310v-52q0 -23 0.5 -52t0.5 -58t-10.5 -47.5t-26 -30t-33 -16t-31.5 -4.5q-14 -1 -29.5 -0.5
t-29.5 0.5h-32l-45 128h-439l-44 -128h-29h-34q-20 0 -45 1q-25 0 -41 9.5t-25.5 23t-13.5 29.5t-4 30v167h911zM163 247q-12 0 -21 -8.5t-9 -21.5t9 -21.5t21 -8.5q13 0 22 8.5t9 21.5t-9 21.5t-22 8.5zM316 123q-8 -26 -14 -48q-5 -19 -10.5 -37t-7.5 -25t-3 -15t1 -14.5
t9.5 -10.5t21.5 -4h37h67h81h80h64h36q23 0 34 12t2 38q-5 13 -9.5 30.5t-9.5 34.5q-5 19 -11 39h-368zM336 498v228q0 11 2.5 23t10 21.5t20.5 15.5t34 6h188q31 0 51.5 -14.5t20.5 -52.5v-227h-327z" />
    <glyph glyph-name="uniE600" unicode="&#xe600;" 
d="M386 874q-40 0 -74 -15t-56 -40t-36.5 -57.5t-15 -66.5t7.5 -68q22 -63 71.5 -100.5t104.5 -37.5q56 0 108 37t72 103q17 55 -0.5 111.5t-66 95t-115.5 38.5zM532 639q-16 -52 -57 -83.5t-88 -31.5q-46 0 -84 35t-54 91q-4 22 -3.5 46.5t11.5 49t26.5 44t42.5 32t60 12.5
q49 0 89 -28.5t55.5 -74.5t1.5 -92zM742 287q-7 37 -41 79.5t-84 74.5q-4 3 -8 3q-7 0 -13 -5.5t-6 -12.5q0 -9 4 -13l1 -1l2 -2q1 0 3 -2q43 -27 71 -63.5t35 -68.5q20 -110 -26 -157q-18 -21 -48 -33.5t-76 -17.5t-78 -6t-91 -1q-57 0 -91.5 1.5t-77.5 7.5t-73.5 20
t-50.5 37q-46 52 -27 153q11 56 65 105t123 76.5t132 27.5q4 0 11.5 2.5t14.5 1.5q4 0 13 2.5t13.5 3.5t10.5 3t8.5 4.5t1.5 4.5q-42 13 -73 13q-80 -1 -158 -32t-133 -85.5t-68 -119.5q-22 -116 31 -185q21 -27 55.5 -45t81 -26.5t90 -11.5t101.5 -3t99.5 2.5t88.5 10
t82.5 24t56.5 41.5q29 34 35 90.5t-7 102.5z" />
    <glyph glyph-name="uniE601" unicode="&#xe601;" 
d="M718 794h-426q-22 0 -37.5 -16.5t-15.5 -39.5v-722q0 -23 15.5 -39t37.5 -16h426q22 0 37.5 16t15.5 39v722q0 23 -15.5 39.5t-37.5 16.5zM279 738q0 6 4 10t9 4h426q6 0 9.5 -4t3.5 -10v-562h-452v562zM731 16q0 -5 -3.5 -9.5t-9.5 -4.5h-426q-5 0 -9 4.5t-4 9.5v118
h452v-118zM505.5 30q16.5 0 28 12.5t11.5 29.5t-11.5 29t-28 12t-28.5 -12t-12 -29t12 -29.5t28.5 -12.5z" />
    <glyph glyph-name="uniE602" unicode="&#xe602;" 
d="M606 311l18 12q40 32 62 77.5t22 96.5q0 92 -64.5 157t-155 65t-155 -65t-64.5 -157q0 -49 20.5 -93t57.5 -76q-70 -37 -110 -101.5t-46 -143.5v-4v-1v0v-1q0 -8 6 -14t14 -6q16 0 16 20l1 5q5 73 46.5 132.5t106.5 88.5q57 -27 107 -27t95 22zM303 497q0 73 56.5 130
t129 57t128.5 -57t56 -130t-56 -129.5t-128.5 -56.5t-129 56.5t-56.5 129.5zM826 174l-47 47l-47 47q-9 9 -18 6.5t-10 -12t7 -18.5q21 -22 42 -42t28 -27h-205q-12 0 -16 -11v-2h-1v-7l1 -1v-2q4 -9 16 -9h207q-10 -9 -31.5 -30t-41.5 -41q-9 -9 -7 -18.5t10.5 -10.5
t17.5 7q24 23 48.5 47t46.5 47q6 5 6 14.5t-6 15.5z" />
    <glyph glyph-name="uniE603" unicode="&#xe603;" 
d="M713 470h-336v55q0 55 39 94.5t93 39.5h6q54 0 93 -39.5t39 -94.5q0 -7 4.5 -12t11 -5t11.5 5t5 12q0 69 -48.5 117.5t-115.5 48.5h-6q-67 0 -115.5 -48.5t-48.5 -117.5v-55h-34q-24 0 -41 -21t-17 -46v-267q0 -24 17 -41.5t41 -17.5h402q24 0 41 17.5t17 41.5v267
q0 25 -17 46t-41 21zM740 136q0 -11 -8 -19t-19 -8h-402q-11 0 -19 8t-8 19v270q0 11 8 21.5t19 10.5h402q11 0 19 -10.5t8 -21.5v-270zM512 342q-35 0 -60 -25t-25 -60.5t25 -60.5t60 -25t60 25t25 60.5t-25 60.5t-60 25zM512 193h-1q-26 0 -43.5 18.5t-17.5 44.5t18 44.5
t44 18.5t44 -18.5t18 -44.5t-18 -44.5t-44 -18.5z" />
    <glyph glyph-name="uniE604" unicode="&#xe604;" 
d="M826 404v-1l-5 5q-323 322 -327 325q-5 6 -17 6q-10 0 -16 -6l-324 -329q-10 -29 0 -40q6 -8 16.5 -14.5t17.5 -6.5h54v-239q0 -55 48 -55h10q2 0 4 1l123 -1v239q0 5 2 9.5t4 4.5h130q7 0 7 -14v-92v-133v-14h130q9 0 16.5 2t12.5 4.5t9.5 6.5t7 8t4.5 8t2.5 7.5
t1.5 6.5t1 4l-1 1v8v238h55q22 0 34 21q10 16 0 40zM791 379q-1 -2 -4 -2h-84v-266v-1q-8 -26 -27 -26h-89v40v54v54v44v19q0 14 -10 27.5t-31 13.5h-130q-19 0 -30 -14t-11 -34v-204h-88h-6h-1q-5 0 -8.5 0.5t-6 2t-4 3t-1.5 4t-0.5 3.5t-0.5 4v3l1 271h-81q-6 4 -8 16
l307 307q20 -20 158 -154.5t156 -152.5v-6v-3q0 -2 -1 -3z" />
    <glyph glyph-name="uniE605" unicode="&#xe605;" horiz-adv-x="1025" 
d="M756 186q-42 -65 -117 -106.5t-156 -41.5q-84 0 -161 46t-123.5 122t-46.5 160q0 85 42 161.5t119 125t170 48.5q49 0 99.5 -19t88.5 -47.5t65.5 -62t37.5 -63.5l62 1q-43 106 -139 172t-214 66q-104 0 -191.5 -51t-138.5 -139t-51 -191.5t51 -191t138.5 -138.5
t191.5 -51q100 0 186 49t138 131q23 38 4 53q-16 14 -40 -11q-8 -9 -15 -22zM828 519h-167q-35 0 -35 -25t35 -25h167q36 0 36 23q0 27 -36 27zM835 700q-28 0 -28 -33l-1 -169q0 -18 4 -27t18 -9q15 0 25.5 10.5t10.5 25.5v167q0 15 -7.5 25t-21.5 10z" />
    <glyph glyph-name="uniE606" unicode="&#xe606;" horiz-adv-x="1025" 
d="M496 60l-349 361l89 73l202 -161q37 45 82.5 93t112 111.5t151.5 130t175 121.5l21 -50q-162 -151 -297 -348.5t-187 -330.5zM937 454q6 -35 6 -70q0 -117 -57.5 -216.5t-157 -157t-216.5 -57.5t-216.5 57.5t-157 157t-57.5 216.5t57.5 216.5t157 157t216.5 57.5
q85 0 162 -32v87q-78 26 -162 26q-104 0 -199 -40q-92 -39 -163 -110t-110 -163q-40 -95 -40 -199t40 -199q39 -92 110 -163t163 -110q95 -40 199 -40t199 40q92 39 163 110t110 163q40 95 40 199q0 35 -5 70h-82z" />
    <glyph glyph-name="uniE607" unicode="&#xe607;" 
d="M505 662q-116 0 -198.5 -82.5t-82.5 -198.5t82 -198t198 -82q115 0 198 82q14 6 21 11q-26 58 -89 113q-34 -25 -114 46q-34 31 -49 56.5t-2 46.5q-65 61 -117 78q-10 -20 -17 -54q0 -2 -0.5 -5.5t1 -15t4.5 -24t11 -31.5t20 -38t32.5 -43t46.5 -47q101 -95 192 -97
q-44 -27 -69.5 -35t-68.5 -8q-97 0 -171 70t-74 175q0 99 70 172.5t175 73.5q100 0 173 -67t73 -172q0 -5 6.5 -12t14.5 -6q4 0 9 6.5t5 10.5q0 119 -81 197t-199 78zM359 546q52 -18 117 -78q37 42 -3 73q-3 3 -8.5 7.5t-20 12.5t-27.5 11t-29.5 -2.5t-28.5 -23.5zM719 316
q-16 17 -33 18t-25.5 -4.5t-16.5 -13.5q63 -56 90 -114q17 14 21 30.5t-1 30.5t-12.5 26.5t-14.5 19.5z" />
    <glyph glyph-name="uniE608" unicode="&#xe608;" 
d="M429 772h-265q-19 0 -32 -13t-13 -32v-265q0 -19 13 -32t32 -13h265q18 0 31.5 13t13.5 32v265q0 19 -13.5 32t-31.5 13zM418 504q0 -13 -9 -22t-22 -9h-182q-12 0 -21 9t-9 22v181q0 13 9 22t21 9h182q13 0 22 -9t9 -22v-181zM861 772h-266q-18 0 -31.5 -13t-13.5 -32
v-265q0 -19 13.5 -32t31.5 -13h266q18 0 31 13t13 32v265q0 19 -13 32t-31 13zM849 504q0 -13 -9 -22t-21 -9h-182q-13 0 -22 9t-9 22v181q0 13 9 22t22 9h182q12 0 21 -9t9 -22v-181zM429 341h-265q-19 0 -32 -13.5t-13 -31.5v-266q0 -18 13 -31.5t32 -13.5h265
q18 0 31.5 13.5t13.5 31.5v266q0 18 -13.5 31.5t-31.5 13.5zM418 72q0 -12 -9 -21t-22 -9h-182q-12 0 -21 9t-9 21v182q0 12 9 21t21 9h182q13 0 22 -9t9 -21v-182zM861 341h-266q-18 0 -31.5 -13.5t-13.5 -31.5v-266q0 -18 13.5 -31.5t31.5 -13.5h266q18 0 31 13.5t13 31.5
v266q0 18 -13 31.5t-31 13.5zM861 341z" />
    <glyph glyph-name="uniE609" unicode="&#xe609;" 
d="M818 -15h-612q-36 0 -61.5 26t-25.5 62v612q0 36 25.5 61.5t61.5 25.5h612q36 0 61.5 -25.5t25.5 -61.5v-612q0 -36 -25.5 -62t-61.5 -26zM304 124h416v47h-416v-47zM731 612q-18 0 -31 -12.5t-13 -30.5q0 -23 18 -36q-12 -69 -66.5 -115t-126.5 -46t-126.5 46t-66.5 115
q18 13 18 36q0 18 -12.5 30.5t-31 12.5t-31 -12.5t-12.5 -30.5q0 -28 25 -40q14 -86 81 -143.5t156 -57.5t156 57.5t81 143.5q25 12 25 40q0 18 -12.5 30.5t-30.5 12.5z" />
    <glyph glyph-name="uniE60A" unicode="&#xe60a;" 
d="M738 669q-5 1 -16 1q9 0 16 -1zM661 580q-10 -2 -16.5 -8.5t-6.5 -16.5v-2q1 -10 7.5 -16.5t16.5 -6.5q10 2 16.5 8.5t6.5 16.5v2q-1 10 -8 16.5t-16 6.5zM235 534h330v44h-330v-44zM883 753q-25 19 -60 19h-514q-37 0 -60 -19q-26 -24 -26 -55v-26h-16q-37 0 -60 -20
q-28 -25 -28 -58v-534q0 -34 27 -55q24 -20 59 -20h513q37 0 59 20q28 25 28 55v26h15q37 0 59 20q27 23 27 54v537q4 31 -23 56zM763 494h-599v101q0 12 12.5 20.5t30.5 8.5h513q17 0 30 -8.5t13 -20.5v-101zM865 163q0 -3 -5 -11t-12 -12q-13 -10 -28 -10h-15v465
q0 11 -1 18q0 1 -2 3q0 2 -2 3q0 2 -1 4l-1 1t-1 2q-1 1 -1.5 2.5t-1.5 2.5t-2.5 3.5t-2.5 2.5q-1 2 -3.5 4.5t-3.5 4.5q-3 3 -6 5l-4 3l-1 1q-1 0 -2 1l-1 1l-6 3l-3 2q-1 2 -3 2q1 0 2 -1q-1 0 -2 1q-1 0 -1.5 0.5t-1.5 0.5t-2.5 1t-2.5 1h-2q-2 0 -4 1t-4 1h-5
q-7 1 -18 1h-449v27q0 6 1.5 9.5t6.5 8.5q13 13 35 13h513q17 0 30 -9t13 -21v-535z" />
    <glyph glyph-name="uniE60B" unicode="&#xe60b;" 
d="M853 667h-681q-30 0 -51.5 -22.5t-21.5 -54.5v-445q0 -31 21.5 -53.5t51.5 -22.5h681q31 0 52 22.5t21 53.5v445q0 32 -21 54.5t-52 22.5v0zM805 184h-171v89h171v-89zM890 438h-755v102h755v-102zM890 438z" />
    <glyph glyph-name="uniE60C" unicode="&#xe60c;" 
d="M874 -23h-755v63h787v-63h-32zM678 91v415q0 8 3 14t5.5 9t11 9.5t11.5 9.5l103 87l60 -33l34 79v-590h-228zM627 456v-365h-13q-3 0 -96 -0.5t-94 0.5h-26v365l22 -12q14 -8 43.5 -19.5t45.5 -10.5t45.5 11.5t50.5 20.5zM807 689q-4 -3 -12.5 -9.5t-12.5 -10.5
q-63 -53 -231 -198q-30 -26 -62 -5q-20 12 -74.5 44.5t-83.5 51.5q-22 15 -38.5 13.5t-34.5 -20.5q-10 -9 -21.5 -18.5t-26.5 -21t-22 -18.5q-31 -23 -50.5 -2t9.5 45q20 16 58 47t56 47q25 21 58 2q23 -14 196 -118q44 38 127 109t121 104q-22 21 -35 35q82 19 174 44
q-1 -4 -46 -163q-28 23 -49 42zM294 526q34 -9 44 -27.5t10 -55.5v-352h-229v288q0 6 22 23q25 21 76.5 62.5t76.5 61.5zM294 526z" />
    <glyph glyph-name="uniE60D" unicode="&#xe60d;" 
d="M884 563h-125l54 32q24 14 31 42t-7 53l-33 60q-14 24 -41 31.5t-51 -6.5l-173 -104q-17 -10 -26 -28q-9 18 -26 28l-174 104q-24 14 -51 6.5t-41 -31.5l-33 -60q-14 -25 -6.5 -53t31.5 -42l53 -32h-125q-12 0 -20.5 -8.5t-8.5 -20.5v-58q0 -12 8.5 -20.5t20.5 -8.5h743
q12 0 20.5 8.5t8.5 20.5v58q0 12 -8.5 20.5t-20.5 8.5zM625 563h-225l-96 57l33 60l174 -104q0 1 1 2l1 1l1 -1v-2l174 104l33 -60zM627 158h-229v231h-228v-405h686v405h-229v-231z" />
    <glyph glyph-name="uniE60E" unicode="&#xe60e;" 
d="M822 751h-118q0 -3 -0.5 -8.5t-3.5 -19.5t-8 -24.5t-14.5 -19t-22.5 -8.5h-293q-1 0 -4 1.5t-10 8t-12.5 15t-10 23t-4.5 32.5h-133q-2 -1 -5 -2t-11 -5.5t-14.5 -10.5t-13 -18t-8.5 -27q-1 -11 -2 -53t-1 -101v-128q0 -68 0.5 -135.5t1 -121t1 -88.5t0.5 -33
q0 -2 0.5 -5t4.5 -10.5t10 -13.5t18.5 -12t29.5 -8h627q2 0 6.5 0.5t15 4.5t19 10t15.5 18.5t7 29.5v642q-1 3 -1.5 7.5t-5 16t-11 20.5t-19.5 16t-30 7zM688 185h-355q-12 0 -21 8.5t-9 21t9 21t21 8.5h355q12 0 21 -8.5t9 -21t-9 -21t-21 -8.5zM688 332h-355
q-12 0 -21 8.5t-9 21t9 21t21 8.5h355q12 0 21 -8.5t9 -21t-9 -21t-21 -8.5zM688 492h-355q-12 0 -21 9t-9 21t9 21t21 9h355q12 0 21 -9t9 -21t-9 -21t-21 -9zM423 691h168q18 0 30.5 13t12.5 31t-12.5 31t-30.5 13h-168q-18 0 -30.5 -13t-12.5 -31t12.5 -31t30.5 -13z" />
    <glyph glyph-name="uniE60F" unicode="&#xe60f;" 
d="M932 419h-1q-1 12 -10 21t-21 10h-19q-33 0 -47 29q-4 8 -5 14q-6 17 -13 31l-6 12q-3 8 -3 17q0 22 16 37l10 11h1v1v0q9 9 10 22.5t-8 23.5q-12 15 -25 28q-14 14 -29 27q-21 16 -43 1l-7 -8l-7 -7h-1q-24 -24 -56 -11q-4 1 -8 3q-17 9 -37 16q-2 0 -6 2q-10 3 -17 11
q-13 13 -15 30q-1 7 0 14v9q0 12 -8 22t-21 12h-6q-18 2 -35 2t-34 -2h-7q-12 -2 -20 -12t-8 -23v-15q0 -17 -9.5 -30t-24.5 -19q-3 -1 -4 -2q-20 -6 -40 -16h-1q-1 -1 -3 -2q-10 -4 -22 -4q-21 0 -36 15h-1l-11 11q-9 9 -21.5 10t-22.5 -6q-1 -1 -2.5 -2t-2.5 -2
q-13 -12 -25 -24q-13 -12 -24 -25q0 -1 -2 -3l-2 -2q-7 -10 -6 -22.5t10 -22.5l11 -11q12 -11 15 -27.5t-4 -30.5q-1 -1 -2 -4q-10 -20 -17 -40q0 -1 -1 -2v-2q-4 -11 -12 -18q-15 -16 -37 -16h-16q-12 0 -22 -8t-12 -20v-3v-4q-2 -17 -2 -34v-1q0 -17 2 -34v-6
q2 -13 12 -21t22 -8h16q16 0 29.5 -9.5t18.5 -23.5q1 -3 2 -4q7 -20 17 -41q1 -2 1 -3q5 -11 5 -22q0 -22 -15 -37l-11 -11v0q-9 -9 -10 -21.5t6 -22.5l4 -6q10 -12 24 -25q13 -13 25 -23q1 -1 3 -2.5t2 -2.5q21 -14 40 1l15 15l1 -1q11 12 27.5 15t30.5 -4q2 -1 3 -1v-1
q20 -10 41 -16q0 -1 1.5 -1t2.5 -1q10 -4 18 -12q15 -15 15 -37h1v-15q0 -13 9 -23t22 -12q20 -2 38 -2q21 0 38 2q14 2 23 12t9 23v16q0 33 30 47q6 3 11 4q17 6 34 14q4 3 10 5q8 3 18 3q19 0 35 -13q1 -2 4 -5l9 -9q9 -9 22 -10t23 7l3 3q14 11 27 24t24 27l3 3
q7 10 6.5 22.5t-8.5 21.5l-3 2l-10 10q-25 25 -11 58q1 2 3 5q9 18 16 39q1 3 2 5q4 10 12 18q15 15 37 15h15q14 0 24 9.5t11 23.5q2 19 2 37zM515.5 148q-96.5 0 -164.5 68t-68 164.5t68 164.5t164.5 68t164.5 -68t68 -164.5t-68 -164.5t-164.5 -68zM515.5 515
q-57.5 0 -96 -38.5t-38.5 -96t38.5 -95.5t96 -38t95.5 38t38 95.5t-38 96t-95.5 38.5z" />
    <glyph glyph-name="uniE610" unicode="&#xe610;" 
d="M934 113q-13 33 -38 77t-44 67q-14 16 -20.5 22t-22 13.5t-38 6.5t-58.5 -8q-27 -7 -56 -34q-28 -26 -54.5 -39t-71.5 -13h-26v1q-45 0 -71.5 13t-54.5 39q-8 8 -17 14.5t-15.5 10t-12 6t-8.5 3.5l-3 1q-36 7 -58.5 8t-38 -7t-21.5 -13.5t-20 -22.5q-20 -23 -44.5 -67
t-38.5 -77q-8 -29 -8 -74q0 -21 9.5 -37t24.5 -23t28 -10.5t24 -3.5h321h30v0v0v0h1v0h1v0h1h1h1h1h1h1h1h1h1h1h10h303q11 0 24.5 3.5t28 10.5t24.5 22.5t10 37.5q0 1 0.5 9t-1.5 26.5t-8 37.5zM515.5 313q85.5 0 146 73t60.5 176t-60 171t-146 68t-146 -68t-60 -171
t60 -176t145.5 -73z" />
    <glyph glyph-name="uniE611" unicode="&#xe611;" 
d="M739 449l-76 -77q7 -11 15 -21l79 74q-9 13 -18 24v0zM271 404l88 -59q7 13 16 27l-89 59q-9 -16 -15 -27v0zM520 509h1q31 1 59 67q-42 15 -84 10q-23 -2 -46 -10q36 -67 70 -67v0zM723 469q-49 57 -99 86q-10 6 -22 12q-15 -36 -31 -56q-23 -28 -48 -29h-3
q-36 0 -72 50q-11 16 -21 35q-15 -7 -29 -17q-36 -24 -69 -61q-15 -17 -28 -36l90 -60q1 3 3 4v-240h245v243q3 -4 7 -9zM723 469z" />
    <glyph glyph-name="uniE612" unicode="&#xe612;" 
d="M654.5 600q-41.5 0 -71 -35.5t-29.5 -85.5q0 -41 20.5 -73t52.5 -43v-219h55v219q32 11 52.5 43t20.5 73q0 50 -29.5 85.5t-71 35.5zM450 600l-8 -181q0 -18 -37 -23l-10 205h-34l-10 -205q-38 5 -38 23l-6 181h-29l-9 -181q0 -21 23 -37.5t58 -21.5v-217h55v217
q36 5 59 21.5t23 37.5l-8 181h-29z" />
    <glyph glyph-name="uniE613" unicode="&#xe613;" 
d="M378 285q7 -122 12 -139q24 -9 61 0l13 139q-14 -10 -49 -10q-24 0 -37 10zM556 477h52q10 0 17 7t7 16q1 1 -0.5 23t-3.5 48t-12 43.5t-25 8.5q-36 -19 -46.5 -31t-11.5 -38v-54q0 -9 7 -16t16 -7zM427 315v129l12 10v80l-12 9h-12l-13 -9v-80q11 -9 13 -10v-129
q-12 0 -21 -2t-12.5 -4t-3.5 -4q0 -6 10 -13t27 -7h12q14 1 25.5 7.5t11.5 12.5q0 1 -4 3.5t-13 4.5t-20 2zM651 354h-5l1 91q0 8 -7 13.5t-17 5.5h-81q-9 0 -16 -5.5t-7 -12.5l-1 -92h-4q-10 0 -16.5 -7t-6.5 -16l-1 -165q0 -10 7 -17t17 -7h137q10 0 17 7t7 16v165
q0 10 -7 17t-17 7zM645 180q0 -9 -3.5 -15.5t-8 -6.5t-8 6.5t-3.5 15.5v124q0 8 3.5 14.5t8.5 6.5t8.5 -6.5t3.5 -15.5z" />
    <glyph glyph-name="uniE614" unicode="&#xe614;" 
d="M793 101l-5 5l-1 -1l-1 -1l5 -5q1 0 2 1t0 1zM680 397l-129 123q-15 14 -35 13.5t-34 -15.5l-176 -187q-14 -15 -13.5 -35t15.5 -34l129 -123q15 -14 35 -13.5t34 15.5l176 186q14 15 13.5 35.5t-15.5 34.5zM416 277q-13 -14 -19 -8l-62 57q-6 6 7 19.5t19 8.5l62 -57
q6 -6 -7 -20zM477 343q-13 -14 -19 -8l-61 57q-6 6 6.5 20t18.5 8l62 -57q6 -6 -7 -20zM538.5 409q-12.5 -14 -18.5 -8l-62 57q-6 6 7 20t19 8l61 -57q6 -6 -6.5 -20zM751 510l-9 9l18 20q13 14 12.5 33t-14 32t-32.5 12.5t-32 -14.5l-19 -20l-9 9q-15 14 -35 13.5
t-34 -15.5l-1 -1q-14 -14 -13.5 -34.5t15.5 -34.5l85 -81q15 -14 35 -13.5t34 15.5l1 1q14 15 13.5 35t-15.5 34z" />
    <glyph glyph-name="uniE615" unicode="&#xe615;" 
d="M793 101l-5 5l-1 -1l-1 -1l5 -5q1 0 2 1t0 1zM633 509q-7 -12 -14 -19.5t-13 -12.5q5 -8 2 -19q-1 -4 -4 -11q-2 -7 -6 -17h8q9 0 14 -3t7.5 -8t3 -11.5t0.5 -11.5q-1 -4 -3 -22q-3 -20 -6 -42q-3 -24 -7 -51t-7 -51q-4 -27 -6 -41q-3 -16 -4 -19q-2 -4 -3 -8
q-1 -5 -3.5 -9t-7.5 -6.5t-14 -2.5h-132q-4 0 -11 1t-13.5 4t-11.5 8t-6 13q-1 5 -3 22q-3 16 -6 36t-6 45q-4 28 -7 46q-3 23 -5 43q-3 20 -4 34q0 11 8.5 21.5t25.5 12.5q-4 19 -7 33t-4 20q-2 8 -1 13t3.5 8t6 4.5t7.5 2t9.5 2t12 2.5t12 2t9.5 2q19 3 23 -17q1 -2 1 -9
q1 -4 3 -16l3 -21q2 -12 3 -26h10q2 12 4 36l4 38q2 18 4 38t3 34q2 13 4 25q1 10 2 13q2 6 6 8.5t8.5 1.5t7 -5t1.5 -10q0 -3 -1 -13q-2 -18 -2 -24q-2 -16 -3 -32q-2 -19 -4 -36q0 -6 -3 -38q-2 -20 -4 -36h33q5 15 10 28t8 20q5 11 14 12q-1 1 -1 2v2q-4 14 -2 24t7 20
q3 6 8 9.5t10.5 7t10 7t5 9.5t1 11t0.5 9q1 4 1 8q6 -18 11 -35q3 -14 4.5 -29.5t-4.5 -25.5zM633 509z" />
    <glyph glyph-name="uniE616" unicode="&#xe616;" 
d="M793 101l-5 5l-1 -1l-1 -1l5 -5q1 0 2 1t0 1zM672 478q20 23 22.5 48.5t-13 38t-40 6t-43.5 -29.5q-11 -14 -27 -51.5t-26 -68.5l-10 -32q112 59 137 89zM751.5 413q-3.5 20 -26.5 30.5t-53 4.5q-17 -3 -53.5 -21.5t-64.5 -36.5l-28 -17q14 -3 36 -7.5t66 -10.5t61 -3
q29 6 47.5 23.5t15 37.5zM670 330q-15 9 -55 18t-73 13l-32 5q77 -101 111 -121q26 -14 51.5 -12.5t35.5 19t-1 40.5t-37 38zM493 371q-6 -127 7 -164q10 -28 31 -43t40 -8t25 32t-4 52q-6 17 -31 49.5t-47 57.5zM383 256q-10 -28 -4 -53t25 -32t39.5 8t31.5 43q6 17 8 58
t1 73l-2 33q-85 -93 -99 -130zM287 289.5q10 -17.5 35 -19t51 13.5q15 8 43 38.5t48 55.5t20 26q-125 -16 -160 -36q-25 -15 -36 -38t-1 -40.5zM335 396q13 -2 32 -0.5t42 5t42.5 7t32.5 6.5l14 3q-107 68 -146 75q-29 5 -52.5 -5.5t-27 -30.5t15 -37.5t47.5 -22.5zM516 418
q-38 121 -64 151q-19 23 -43.5 30t-40 -6t-12.5 -38.5t22 -48.5q25 -30 138 -88zM579 564q0 29 -14.5 50.5t-34.5 21.5t-34.5 -21.5t-14.5 -50.5q0 -18 12.5 -57t24.5 -70l12 -30q49 117 49 157z" />
    <glyph glyph-name="uniE617" unicode="&#xe617;" 
d="M793 101l-5 5l-1 -1l-1 -1l5 -5q1 0 2 1t0 1zM697 213h55q5 0 8 3t3 8v129q0 -86 -66 -140zM442 542q0 4 -3 7t-8 3h-99q-5 0 -8 -3t-3 -7v-9h121v9zM582 453q-41 0 -70.5 -29.5t-29.5 -70.5t29.5 -70.5t70.5 -29.5t70.5 29.5t29.5 70.5t-29.5 70.5t-70.5 29.5zM572 392
l-3 -1q-3 -1 -8.5 -4t-8.5 -7t-5.5 -9t-3.5 -8l-1 -4l-1 -1q-1 -2 -3.5 -3.5t-5.5 -1.5q-4 1 -6 3t-3 4v2q2 18 15 32q8 9 18 13l14 4q9 2 12 -8q1 -4 -1.5 -6.5t-5.5 -3.5zM582 512q-66 0 -113 -46.5t-47 -112.5t47 -113t113.5 -47t113.5 47t47 113t-47 112.5t-114 46.5z
M582 233q-50 0 -85 35t-35 85t35 85t85 35t85 -35t35 -85t-35 -85t-85 -35zM752 513h-54l-23 46q-4 8 -5 9q-3 4 -7 4h-163q-2 0 -5 -3q-2 -2 -6 -10l-23 -46h-174q-5 0 -8 -3t-3 -7v-279q0 -5 3 -8t8 -3h176q-67 54 -67 140q0 74 53 127t128 53t128 -53t53 -127v150
q0 4 -3 7t-8 3zM381 442q0 -9 -10 -9h-40q-10 0 -10 9v1q0 10 10 10h40q10 0 10 -10v-1zM381 442z" />
    <glyph glyph-name="uniE618" unicode="&#xe618;" 
d="M793 101l-5 5l-1 -1l-1 -1l5 -5q1 0 2 1t0 1zM667 459q12 5 23 3t19 -9.5t12 -18.5t2 -23t-11 -23.5t-26 -19.5q-12 -6 -22 -10q-10 -5 -18 -8q1 -5 1 -9v-8q0 -13 -2 -24t-6 -21q12 -3 26 -7q13 -3 20.5 -14t9.5 -25t-1 -29t-11.5 -25.5t-21.5 -15t-31 2.5
q-49 17 -74.5 30.5t-29.5 16.5h-4h-5h-9q-4 0 -9 1q-11 -6 -26 -14q-13 -7 -33 -15.5t-47 -18.5q-18 -7 -31 -2.5t-21 15t-11 25.5t-1 29t9.5 25t20.5 14q10 3 19 5q10 3 17 5q-3 9 -5 19.5t-2 22.5v7q0 3 1 7q-20 8 -51 23q-17 8 -26 19.5t-11 23.5t2 23t12 18.5t19 9.5
t23 -3q3 -1 6 -3l6 -2q9 -18 23 -33t32.5 -25.5t39.5 -16.5t45 -6q23 0 44 5.5t39 15.5t32 24t23 31l10 4l10 4v0zM512 404q-26 0 -49 8t-40.5 22t-27.5 32.5t-10 40.5q0 16 6.5 31t16.5 28q-7 8 -11.5 20.5t-4 25t6.5 23t20 15.5q12 5 23 2.5t19.5 -9t14 -16.5t7.5 -20
q14 3 29 3q12 0 22.5 -1.5t21.5 -5.5v2v2q2 10 7.5 20t14 16.5t19.5 9t24 -2.5t19.5 -15.5t6.5 -23t-4.5 -25t-11.5 -20.5l-4 -5q-3 -2 -5 -4q17 -23 17 -50q0 -22 -10 -40.5t-27.5 -32.5t-40.5 -22t-49 -8v0zM512 498q-4 0 -9.5 -0.5t-9.5 -1.5t-7 -3.5t-3 -7t1.5 -10
t5.5 -10.5t9 -8.5t13 -3.5q7 0 12.5 3.5t9 8.5t5.5 10.5t2 10t-3 7t-7.5 3.5t-9.5 1.5t-9 0.5v0zM512 498z" />
    <glyph glyph-name="uniE619" unicode="&#xe619;" 
d="M793 101l-5 5l-1 -1l-1 -1l5 -5q1 0 2 1t0 1zM517 221q-3 1 -5 4.5t-3 5.5v3l1 121q1 20 11.5 38t23.5 30t25 34t16 50q4 41 1.5 70t-7.5 45l-5 16h-160q-2 -6 -5 -16t-7.5 -45t2.5 -70q3 -27 15 -49t24.5 -34t23.5 -29.5t12 -37.5v-123q0 -10 -8 -13q-2 -1 -17 -3.5
t-27 -6t-12 -8.5q0 -10 79 -10t79 10q0 5 -12 8.5t-27 6t-18 3.5zM696 547q4 41 2 70.5t-7 45.5l-5 15h-161q-4 -10 -8 -30h67q1 -2 2.5 -6.5t5 -19t5 -30t2 -40t-3.5 -49.5q-4 -34 -21 -62q15 -21 17 -43v-124q0 -9 -8 -13q-3 -1 -18 -3.5t-27 -6t-12 -7.5q0 -10 79.5 -10
t79.5 10q0 4 -12.5 7.5t-27 6t-17.5 3.5q-4 2 -6 5t-2 6v2v122q1 20 12 37.5t23.5 29.5t25 34.5t15.5 49.5z" />
    <glyph glyph-name="uniE61A" unicode="&#xe61a;" 
d="M793 101l-5 5l-1 -1l-1 -1l5 -5q1 0 2 1t0 1zM616 209q-8 2 -5 54t6.5 100.5t-9.5 70.5h-33v-19h-39v19h-29q-23 -59 -84 -90q-24 -11 -36 -30t-13 -34t0 -30t0 -17q-3 -2 -9 -4t-21.5 -4t-26.5 1t-20 17.5t-8 40.5q0 -1 -0.5 -3.5t-1 -11t0 -15.5t2.5 -18t6.5 -18
t12 -16t19 -12t26.5 -5.5t36 2.5q-3 -11 8 -12h146q1 0 4 0.5t8 4t6.5 8.5t-2.5 14t-16 21q2 2 6 5t10 10t6 12v-71q52 -6 61 0q8 5 6 15.5t-17 14.5zM741 581q-7 27 -25 43t-36.5 19t-33.5 1.5t-21 -6.5q-3 1 -9 3.5t-22 6t-31 4.5t-33 -3t-31 -15q-2 2 -5.5 4t-14.5 7.5
t-22 8.5t-26.5 3t-29.5 -5q-15 -5 -31.5 -17.5t-29.5 -27t-22.5 -30t-10.5 -27t7 -17.5q14 -9 33.5 -9.5t32.5 11.5q11 15 44.5 30.5t40.5 24.5q9 -62 34 -83q-2 -2 -4 -5t-5.5 -11t-3.5 -15.5t5.5 -17t18.5 -16.5v-1h105q25 25 12 59q4 5 9.5 13.5t12.5 35.5t2 54
q13 -17 13.5 -40t-5 -41t-2 -36t21.5 -26q33 -10 55.5 27.5t6.5 93.5z" />
    <glyph glyph-name="uniE61B" unicode="&#xe61b;" 
d="M793 101l-5 5l-1 -1l-1 -1l5 -5q1 0 2 1t0 1zM528 552q13 0 22.5 9.5t9.5 22.5q0 8 -8 27.5t-16 35.5l-8 16q-32 -61 -32 -79q0 -13 9 -22.5t23 -9.5v0zM439 549q12 0 20 8.5t8 19.5q0 7 -7 24.5t-14 31.5l-7 13q-28 -54 -28 -69q0 -11 8 -19.5t20 -8.5v0zM623 549
q12 0 20 8.5t8 19.5q0 7 -7 24.5t-14 31.5l-7 13q-28 -54 -28 -69q0 -11 8 -19.5t20 -8.5zM606 331q-29 -33 -78.5 -33t-77.5 33q-27 -33 -75 -33q-46 0 -72 30v-73q0 -33 23.5 -56t56.5 -23h289q33 0 56.5 23t23.5 56v73q-26 -30 -72 -30q-48 0 -74 33zM591 472h-26v72h-64
v-72h-28v64h-64v-64h-26q-7 0 -14 -1q-28 -4 -47 -24t-19 -46q0 -30 23.5 -50.5t56.5 -20.5q42 0 66 30q29 -30 78.5 -30t78.5 30q24 -30 66 -30q33 0 56.5 20.5t23.5 50.5q0 26 -19 46t-47 24q-7 1 -14 1h-17v64h-64v-64zM591 472z" />
    <glyph glyph-name="uniE61C" unicode="&#xe61c;" 
d="M793 101l-5 5l-1 -1l-1 -1l5 -5q1 0 2 1t0 1zM433 565q20 -6 38 -4.5t30.5 6t13.5 8t-5 14.5t-20.5 24.5t-31.5 20.5q-19 6 -37 4.5t-30.5 -6t-13.5 -8.5q-2 -4 4 -15t20.5 -24t31.5 -20zM535 517q11 0 10 10q1 2 0 10.5t2.5 22t9 26.5t19.5 24t34 14q10 2 8.5 12
t-11.5 8q-33 -5 -53 -28t-25.5 -45.5t-3.5 -44.5q0 -9 10 -9zM606 523q-18 0 -87 -30q-68 30 -88 30q-59 0 -89 -41.5t-30 -105.5q0 -15 4 -32q12 -75 69 -124t134 -49q76 0 133.5 48.5t69.5 122.5q5 18 5 34q0 64 -31.5 105.5t-89.5 41.5zM436 464q-3 -2 -6.5 -4.5
t-11.5 -11.5t-14 -19.5t-11.5 -29.5t-6.5 -40q-1 -5 -4.5 -8.5t-8.5 -3.5h-1q-5 0 -8.5 4t-3.5 9q1 26 8 48t15 35t18 24t15 14l7 5q11 6 17.5 -5t-4.5 -17z" />
    <glyph glyph-name="uniE61D" unicode="&#xe61d;" 
d="M793 101l-5 5l-1 -1l-1 -1l5 -5q1 0 2 1t0 1zM524.5 613q42.5 0 77 -24t49.5 -63h27q-16 50 -58 81.5t-95.5 31.5t-96 -31.5t-58.5 -81.5h27q15 39 50 63t77.5 24zM750 518h-452q-6 0 -11 -4.5t-5 -11.5v-55q0 -6 5 -11t11 -5h14l35 -180q0 -2 1 -6.5t6 -11.5t14 -7h314
q9 0 14 6.5t6 12.5l1 6l35 180h12q7 0 11.5 5t4.5 11v55q0 7 -4.5 11.5t-11.5 4.5zM457 286q0 -7 -5 -12t-12 -5t-12 5t-5 12v138q0 7 5 12t12 5t12 -5t5 -12v-138zM541 286q0 -7 -5 -12t-12 -5t-12 5t-5 12v138q0 7 5 12t12 5t12 -5t5 -12v-138zM625 286q0 -7 -5 -12
t-12 -5t-12 5t-5 12v138q0 7 5 12t12 5t12 -5t5 -12v-138z" />
    <glyph glyph-name="uniE61E" unicode="&#xe61e;" 
d="M793 101l-5 5l-1 -1l-1 -1l5 -5q1 0 2 1t0 1zM744 574l-78 -78l-66 66l78 79q-33 14 -68 7q-37 -8 -63 -34q-31 -33 -34 -78.5t23 -81.5l-36 -30l-121 125l-1 38l-72 45l-35 -36l44 -72h38l120 -123l-181 -155q-11 -12 -11 -27.5t11 -26.5l13 -13q11 -12 26 -12t26 12
l159 177l23 -23l-13 -13q-5 -6 -5 -14t5 -13l115 -119q5 -5 13 -5t13 5l52 54q6 5 6 13t-6 13l-115 119q-5 6 -13 6q-7 0 -13 -6l-14 -14l-23 24l33 37q35 -20 74 -15q41 5 70 35q26 27 33 64q7 36 -7 70zM336 200q-6 -6 -13.5 -6t-13.5 6q-5 5 -5 13t5 13q6 6 13.5 6
t13.5 -6q5 -5 5 -13t-5 -13z" />
    <glyph glyph-name="uniE61F" unicode="&#xe61f;" 
d="M793 101l-5 5l-1 -1l-1 -1l5 -5q1 0 2 1t0 1zM711 278q9 5 17 3t13.5 -8.5t9 -16t3.5 -19.5t-3.5 -18t-11.5 -12q-1 -4 -13 -7q-11 -3 -34.5 -5.5t-66.5 -1.5q-3 -1 -12.5 -0.5t-22.5 2.5t-26.5 7t-25 14t-18 23t-5.5 34q-1 7 -4 15t-3 18.5t6.5 24t25.5 32.5q7 12 5 21
q-1 8 -11 14.5t-36 6.5q-28 2 -45 13q-7 5 -13 12t-8.5 17.5t-1 24.5t10.5 32q2 16 -3 28q-3 5 -7 9t-10 6.5t-15.5 3t-22.5 -2.5q1 -4 1 -11v-13q-1 -8 -3 -19q-3 -11 -5 -19t-6 -14t-10.5 -12t-18.5 -13q0 -1 2 -3q2 -3 7 -6q5 -2 12 -4t9 -6q1 -2 0 -4.5t-2.5 -5t-2.5 -5
t0 -3.5q1 -3 3 -3.5t2 -1.5q-1 0 -1 -1l-2 -2q-1 -2 -0.5 -3.5t1.5 -2.5l3 -2q1 -2 1 -4q-2 -11 -1 -19t5.5 -14.5t15.5 -7.5h83q12 -23 17 -48q2 -10 2 -21.5t-2 -24t-8 -24.5t-16 -24q-15 -8 -33 -12q-15 -3 -36 -1.5t-45 13.5q-10 -7 -18 -6q-7 0 -14 7t-11 27
q-12 13 -14 24q-1 5 0.5 9.5t6 9t13.5 8.5t23 6q12 8 14 16t-6.5 18t-36.5 23q-27 17 -37 40q-4 10 -5 22t4.5 26.5t18 31t34.5 35.5q5 4 9 10q3 5 4.5 13t0.5 20q-13 24 -14 46q-1 9 1.5 19t8.5 19t17.5 16t29.5 12q12 9 25 12q11 3 23.5 1.5t22.5 -13.5q26 10 52 13
q11 2 23 1.5t23.5 -3.5t22.5 -9t21 -16q30 -1 53 -19q10 -8 19 -20.5t15.5 -30.5t10 -42.5t2.5 -56.5q32 -32 46 -62q6 -13 9 -27t0.5 -28t-12.5 -27.5t-29 -25.5q-13 -1 -22 -7q-9 -4 -15.5 -12.5t-5.5 -22.5q-1 -9 2 -14q2 -6 8 -10t19 -5q2 4 4 6q1 2 0.5 4.5t-4.5 4.5
q-3 6 -2 12t4 10t12 6v0zM711 278z" />
    <glyph glyph-name="uniE620" unicode="&#xe620;" 
d="M793 101l-5 5l-1 -1l-1 -1l5 -5q1 0 2 1t0 1zM741 478q-9 17 -18 18q-15 1 -53 3q-48 62 -59 62h-220q-11 0 -59 -62q-38 -2 -53 -3q-9 -1 -18 -18q-4 -8 -2.5 -11.5t10.5 -6.5l21 -8q-13 -25 -19 -36q-4 -7 -4 -19q-1 -103 0 -128q0 -10 3 -14t12 -4h20h28h16
q14 0 14 14v27h280v-27q0 -14 14 -14h65q8 0 11 4t3 14v115q0 27 -3 32l-18 36q10 3 22 8q8 3 9.5 6.5t-2.5 11.5zM391 366q-62 2 -79 4q-6 0 -10 3.5t-5 9t-1 9.5t0.5 10t0.5 7t14.5 -0.5t32 -3.5t25.5 -3q22 -3 22 -14v-22zM501 452h-153q-10 0 10 31q5 8 11 15
q23 29 36 29h58h18h20h19h19h58q12 0 36 -29q27 -32 24 -44q-1 -2 -2 -2h-154zM690 370l-79 -4v22q0 11 22 14q8 1 25.5 3t32 3.5t14.5 0.5t0.5 -7t0.5 -10t-1 -9.5t-4.5 -9t-10.5 -3.5zM690 370z" />
    <glyph glyph-name="uniE621" unicode="&#xe621;" 
d="M793 101l-5 5l-1 -1l-1 -1l5 -5q1 0 2 1t0 1zM645 539q7 0 12.5 8t6 19.5t-4 20t-11.5 9t-12.5 -7.5t-6 -19.5t3.5 -20t12 -9.5zM598 553q8 0 14 9t6 22.5t-5.5 23t-13 9.5t-13.5 -9.5t-6.5 -22.5t5 -22.5t13.5 -9.5zM693 523q7 0 12.5 7.5t6.5 19.5t-3 20.5t-11 9
t-13 -7.5t-7 -19.5t3.5 -20t11.5 -9.5zM566 583q1 16 -5.5 27t-16 11.5t-16.5 -10.5t-7.5 -27t6 -27.5t16 -11.5t16.5 11t7 27zM733 546q-6 2 -12.5 -4.5t-9 -16.5t0.5 -18.5t9 -9.5q6 -2 11 4.5t7 16.5q6 25 -6 28zM616 530q-38 5 -60.5 -3t-25.5 -23q-4 -20 51 -64
q20 -15 32 -33q14 -23 12.5 -46.5t-13 -39.5t-22 -34t-14 -31.5t9.5 -31.5q19 -19 48 -21q35 -2 46 27q4 13 1.5 63.5t11.5 75.5q22 42 23 75t-23.5 56t-76.5 30zM401 497q8 1 12 11t2.5 23t-8 22t-14.5 8t-12.5 -11t-3 -23.5t8.5 -22t15 -7.5zM291 458q-4 10 -10.5 15.5
t-12.5 3.5q-12 -4 -4 -28q9 -24 21 -19q6 2 7.5 10.5t-1.5 17.5zM447 571q-9 -1 -14.5 -13t-3.5 -27.5t10 -26t17.5 -9.5t15 13t3.5 28t-10.5 26t-17.5 9zM385 473q-50 -12 -72 -37.5t-18 -58t30 -71.5q17 -27 19.5 -75.5t8.5 -60.5q13 -29 47 -23q29 5 46 26q11 16 6.5 32
t-17.5 29.5t-25 32t-17 37.5t8 47q10 19 28 36q50 49 44 69q-5 14 -26.5 19.5t-61.5 -2.5zM356 479q7 1 10.5 10t1.5 20.5t-8 19t-13 6.5t-10.5 -10t-1.5 -20.5t8 -19t13 -6.5zM310 458q7 2 10 11t1 20.5t-8.5 18.5t-13 6t-10 -10t-1.5 -20.5t8.5 -19t13.5 -6.5zM310 458z
" />
    <glyph glyph-name="uniE622" unicode="&#xe622;" 
d="M793 101l-5 5l-1 -1l-1 -1l5 -5q1 0 2 1t0 1zM593 279q45 40 46 105q0 51 -35 85.5t-86.5 34.5t-86.5 -34.5t-35 -85.5q0 -64 46 -105l15 30q-13 11 -22 33t-9 42q0 36 28 63t63.5 27t63 -27t27.5 -63q0 -22 -8 -43t-22 -32zM502 369l-76 -226h181l-75 226h-30zM725 429
q-8 43 -32 79q6 10 6 19q0 16 -11 27t-27 11q-9 0 -19 -6q-35 24 -80 32q-1 14 -11.5 24t-25.5 10q-14 0 -24.5 -9t-12.5 -23q-55 -6 -96 -34q-10 6 -19 6q-15 0 -26.5 -11t-11.5 -27q0 -9 6 -19q-23 -36 -32 -79q-14 -2 -24 -12.5t-10 -24.5t9 -24.5t23 -12.5q7 -45 31 -84
q-3 -7 -3 -15q0 -15 11.5 -26.5t26.5 -11.5q3 0 10 2q15 -11 28 -17l15 30q-8 3 -18 8q3 8 3 15q0 16 -11 27t-27 11q-5 0 -12 -3q-19 34 -24 72q14 12 14 29q0 15 -12 27q7 39 30 71q1 0 2 -0.5t2 -0.5q16 0 27 11t11 27q0 1 -0.5 2.5t-0.5 2.5q38 27 86 32q12 -14 29 -14
q16 0 27 12q41 -8 73 -30q-1 -1 -1.5 -2.5t-0.5 -2.5q0 -16 11.5 -27t26.5 -11q1 0 2.5 0.5t2.5 0.5q22 -32 30 -71q-12 -12 -12 -27q0 -17 13 -28q-6 -36 -30 -71l-2 1h-4q-15 0 -26 -11t-11 -27q0 -3 2 -10q-9 -7 -18 -13l16 -30q12 7 25 18q8 -3 12 -3q16 0 27 11t11 27
q0 8 -3 16q25 39 32 83q13 2 22.5 12.5t9.5 24.5t-10 24.5t-25 12.5zM725 429z" />
    <glyph glyph-name="uniE623" unicode="&#xe623;" 
d="M793 101l-5 5l-1 -1l-1 -1l5 -5q1 0 2 1t0 1zM503 401h-1q-1 -1 -4 -1l-1 -1q-1 0 -4 -1h-2h-7h-3h-1h-2q-4 1 -5 1h-2q-3 1 -4 2l-2 1t-3 1l-1 1l-3 1l-66 35v-74q0 -27 44.5 -46t107 -19t106.5 19t44 46v103zM754 534l-186 89q-6 2 -14 2q-7 0 -13 -2
q-18 -7 -58.5 -21.5t-78 -28t-70.5 -25.5t-35 -13q-5 -2 -8 -6t-4 -7v-3l14 -161q-51 -79 -5 -94q6 -2 12 -2q20 1 27.5 13.5t3 29t-12 31t-14.5 22.5v153l161 -84l1 -1h1q1 -1 3 -1v-1h5h1h6h1q3 1 5 2v0h1l258 94q11 8 -1 14z" />
    <glyph glyph-name="uniE624" unicode="&#xe624;" 
d="M793 101l-5 5l-1 -1l-1 -1l5 -5q1 0 2 1t0 1zM439 568q23 16 29 30t-0.5 23.5t-13.5 20.5t-10 20.5t10 23.5q-17 -2 -24 -14.5t-5 -24.5t6 -17q1 -1 7 -4.5t9 -7.5t5.5 -10.5t-0.5 -16.5t-13 -23zM488 568q23 16 32 30.5t5.5 25.5t-10.5 22.5t-14.5 21t-7 21.5t12.5 24
q-21 -3 -29.5 -18.5t-6 -30t7.5 -19.5q1 -1 8.5 -6t11 -10t7 -13t-1 -20.5t-15.5 -27.5zM674 517h-58v10q0 12 -9 20.5t-21 8.5h-147v-88h19q13 0 21.5 -8.5t8.5 -20.5v-78q0 -12 -8.5 -20.5t-21.5 -8.5h-59q-12 0 -20.5 8.5t-8.5 20.5v78q0 12 8.5 20.5t20.5 8.5h20v88h-59
q-12 0 -20.5 -8.5t-8.5 -20.5v-253q0 -21 14 -35t35 -14h186q21 0 35.5 14t14.5 35v48h58q13 0 21.5 8.5t8.5 21.5v136q0 12 -8.5 20.5t-21.5 8.5zM674 381q0 -12 -8.5 -20.5t-20.5 -8.5h-20q-4 0 -9 1v134q5 2 9 2h20q12 0 20.5 -8.5t8.5 -20.5v-79zM402 427q0 -10 7 -17
t17 -7t17.5 7t7.5 17t-7.5 17t-17.5 7t-17 -7t-7 -17zM402 427z" />
    <glyph glyph-name="uniE625" unicode="&#xe625;" 
d="M793 101l-5 5l-1 -1l-1 -1l5 -5q1 0 2 1t0 1zM468 356q24 12 24 32q0 13 -10 21t-25 8q-16 0 -26.5 -8.5t-10.5 -22.5q0 -19 22 -30q-26 -11 -26 -35q0 -14 10 -23t27 -9q20 0 31.5 9t11.5 25q0 23 -28 33zM436 387q0 7 6 12t14 5q9 0 14.5 -4.5t5.5 -13.5q0 -15 -20 -23
q-20 8 -20 24zM473.5 307q-6.5 -6 -17.5 -6t-18 6t-7 15q0 17 24 27q25 -9 25 -27q0 -9 -6.5 -15zM627 582h-1q-13 8 -28 14h-2v1q-8 3 -15 5t-15 4h-2l-1 1q-8 2 -15 3t-15 2h-4h-16h-17q-2 0 -3 -1q-8 0 -17 -2h-2q-10 -2 -17 -3v-1q-7 -1 -16 -4q-2 -1 -3 -1
q-8 -3 -15 -6q-1 0 -1 -1q-16 -7 -31 -16q-48 -31 -76 -81t-28 -108q0 -93 66 -159t160 -66t160 66t66 159q0 61 -30.5 112.5t-81.5 81.5zM464 239q-49 0 -83 34.5t-34 83t34 82.5t83 34t83.5 -34t34.5 -82.5t-34.5 -83t-83.5 -34.5zM611 469q-19 17 -25.5 36.5t3.5 31
t30.5 8t40 -20t26 -36.5t-3.5 -31.5t-31 -8t-40 20.5z" />
    <glyph glyph-name="uniE626" unicode="&#xe626;" 
d="M290 651q21 24 38.5 31t47.5 7h284q18 0 26 -0.5t25.5 -9t33.5 -26.5q11 -12 34 -40t40 -51l18 -22h-638q67 85 91 111zM787 157q0 -20 -17 -34.5t-39 -14.5h-426q-22 0 -39 14.5t-17 34.5v177h56l-1 -99h427v99h56v-177zM724 391q-42 1 -77 39.5t-35 81.5
q0 -44 -30 -82.5t-71 -38.5t-73 38.5t-32 82.5q0 -23 -6 -43.5t-17.5 -39.5t-33.5 -29.5t-51 -8.5q-49 3 -74 38t-25 83h638l-9 -30q-3 -10 -13 -30.5t-21 -31.5t-29.5 -20t-40.5 -9z" />
    <glyph glyph-name="uniE627" unicode="&#xe627;" 
d="M258 184v124q0 9 7.5 15.5t17.5 6.5h74q11 0 18 -6.5t7 -15.5v-124h-124zM407 184v279q0 10 7 16.5t18 6.5h74q10 0 17.5 -6.5t7.5 -16.5v-279h-124zM555 184v436q0 9 7.5 15.5t17.5 6.5h75q10 0 17 -6.5t7 -15.5v-436h-124zM763 662v-547h-505v43h453v504h52z" />
    <glyph glyph-name="uniE628" unicode="&#xe628;" 
d="M785 464v-1h-1q-5 -13 -21.5 -57.5t-27.5 -71.5q-21 -56 -64 -142q-14 -20 -40 -31.5t-53 -11.5h-132q-25 0 -43.5 12.5t-40.5 40.5q-17 20 -65 129q-8 20 -28 74t-23 59h-2h-2q-21 0 -36.5 15t-15.5 37t15.5 37.5t37 15.5t37 -15.5t15.5 -37.5q0 -15 -8 -28l70 -84
q8 -9 16.5 -19.5t12.5 -16.5l5 -5q2 0 26 58l59 144q-19 16 -19 41q0 22 15 37t37 15t37 -15t15 -37q0 -26 -21 -42l64 -144q25 -57 27 -57l7 9q8 8 18.5 20.5t16.5 19.5l67 79q-7 12 -7 25q0 22 15.5 37.5t37 15.5t37 -15.5t15.5 -37.5t-15.5 -37t-37.5 -15z" />
    <glyph glyph-name="uniE629" unicode="&#xe629;" 
d="M608 593q-44 44 -106 44t-106 -43.5t-44 -105.5t44 -106t106 -44t106 44q43 44 43 106t-43 105zM775 137q-30 61 -86 98.5t-120 37.5h-134q-64 0 -120 -37.5t-86 -98.5q54 -51 124.5 -79.5t148.5 -28.5t148 28.5t125 79.5z" />
    <glyph glyph-name="uniE62A" unicode="&#xe62a;" 
d="M628 625q79 0 135 -23t56 -56t-56 -56.5t-135 -23.5t-135 23.5t-56 56.5t56 56t135 23zM406 210h-17q-79 0 -134.5 23.5t-55.5 56.5v72q0 -33 55.5 -56.5t134.5 -23.5q9 0 17 1v-73zM406 334h-17q-79 0 -134.5 23t-55.5 56t55.5 56.5t134.5 23.5q9 0 17 -1v-158zM819 210
q0 -33 -56 -56.5t-135 -23.5t-135 23.5t-56 56.5v59q0 -33 56 -56t135 -23t135 23t56 56v-59zM819 320q0 -33 -56 -56.5t-135 -23.5t-135 23.5t-56 56.5v59q0 -33 56 -56t135 -23t135 23t56 56v-59zM819 432q0 -32 -56 -55.5t-135 -23.5t-135 23.5t-56 55.5v60
q0 -33 56 -56.5t135 -23.5t135 23.5t56 56.5v-60z" />
    <glyph glyph-name="uniE62B" unicode="&#xe62b;" 
d="M857 331q0 67 -57.5 115t-133.5 48q-80 0 -136 -47.5t-56 -115.5t56 -115.5t136 -47.5q22 0 67 11l62 -34l-17 57q79 59 79 129zM593.5 341q-12.5 0 -21.5 8.5t-9 20t9 20t21.5 8.5t21.5 -8.5t9 -20t-9 -20t-21.5 -8.5zM754 342q-10 0 -19 8.5t-9 19t9 19t19 8.5
q15 0 25 -8t10 -19t-10 -19.5t-25 -8.5zM618 520q11 0 22 -1q-15 67 -79.5 112t-147.5 45q-93 0 -159 -55.5t-66 -135.5q0 -89 90 -152l-23 -67l79 39q57 -11 79 -11q8 0 21 1q-7 24 -7 47q0 74 55.5 126t135.5 52zM483.5 572q13.5 0 23.5 -9t10 -22t-10 -22t-23.5 -9
t-23.5 9t-10 22t10 22t23.5 9zM325 510q-14 0 -23.5 9t-9.5 22t9.5 22t23.5 9t23.5 -9t9.5 -22t-9.5 -22t-23.5 -9z" />
    <glyph glyph-name="uniE62C" unicode="&#xe62c;" 
d="M620 741h-277v-34h277v34zM693 673h-424l-30 -36v-229h69v91h346v-91h70v229zM343 256h277v213h-277v-213zM390 430h181v-35h-181v35zM390 361h181v-35h-181v35zM390 361z" />
    <glyph glyph-name="uniE62D" unicode="&#xe62d;" 
d="M382 410h-71q-24 0 -39.5 -16t-15.5 -40v-25v-26v-39v-48q0 -21 12 -36.5t32 -18.5q7 -1 28 -1h28h23q78 1 79 1q20 0 34.5 16t14.5 36v143q0 5 -1 8q-4 21 -18.5 33.5t-35.5 12.5h-70v0zM413 442h48q20 0 32 12t12 32v90q0 19 -12 31.5t-31 12.5h-97q-18 0 -30 -12
t-12 -31v-93q0 -18 12 -30t30 -12h48v0zM668 442h48q19 0 30.5 12t11.5 30v93q0 18 -11.5 30t-29.5 13h-99q-18 -1 -30 -14t-12 -30q2 -47 0 -91q0 -17 13 -30.5t31 -13.5q3 1 48 1v0zM577 316v-35v-20q3 -15 14.5 -24.5t28.5 -9.5q50 -1 97 0q17 0 29 11.5t12 28.5v98
q0 16 -11 27.5t-26 11.5q-29 1 -102 1q-19 0 -31.5 -13.5t-10.5 -32.5v-43v0zM581 332z" />
    <glyph glyph-name="uniE62E" unicode="&#xe62e;" 
d="M710 559v74h-465v-366h99v-54h465v346h-99zM314 556v-252h-35v295h400v-43h-365zM775 417h-417v61h417v-61z" />
    <glyph glyph-name="uniE62F" unicode="&#xe62f;" 
d="M291 596v-318h472v318h-472zM526 397l1 -1q-57 0 -99.5 41t-41.5 105h32q0 -45 32.5 -77.5t78 -32.5t77.5 32.5t32 77.5l33 -1q0 -64 -44 -104t-101 -40zM291 191q0 -13 21.5 -23.5t36.5 -10.5h358q16 0 36 10.5t20 23.5v43h-472v-43z" />
    <glyph glyph-name="uniE630" unicode="&#xe630;" 
d="M479 628q-101 0 -172 -71.5t-71 -172t71 -172t172 -71.5t172 71.5t71 172t-71 172t-172 71.5zM601 419v-52h-87v-17h87v-52h-87v-70h-70v70h-87v52h87v17h-87v52h70l-70 104l35 35l87 -121l87 121l35 -35l-70 -104h70zM879 402q-5 105 -58 192.5t-141.5 138.5t-191.5 51
q-106 0 -196 -53.5t-142.5 -145.5t-52.5 -201q0 -107 51 -198t139 -145t192 -56v53q-90 2 -166 49t-120 126t-44 171q0 94 45.5 174t123.5 126.5t170 46.5q136 0 234 -95.5t104 -233.5h-51l77 -139l79 139h-52z" />
    <glyph glyph-name="uniE631" unicode="&#xe631;" 
d="M774 198v104h-104v-104h-103v-104h103v-103h104v103h104v104h-104zM653 371q-42 38 -92 62.5t-98 24.5q-65 0 -121 -26t-99 -74.5t-67 -125t-24 -172.5v-17h316q-5 31 -5 51q0 91 53 164.5t137 112.5zM463 492q65 0 110.5 40.5t45.5 98t-45.5 98t-110.5 40.5
t-110.5 -40.5t-45.5 -98t45.5 -98t110.5 -40.5z" />
    <glyph glyph-name="uniE632" unicode="&#xe632;" 
d="M410 88q-5 7 -10 15q-117 9 -190 43t-73 85v-83q0 -32 31 -60q41 -39 125.5 -63t187.5 -24q4 0 10.5 0.5t8.5 0.5q-55 34 -90 86zM377 156q-10 35 -10 65q0 5 3 32q-105 12 -169 44.5t-64 79.5v-82q0 -49 67 -87t173 -52zM383 302q18 51 59 92q-133 5 -219 40t-86 90v-83
q0 -49 69 -87.5t177 -51.5zM468 611l-101 -31q5 -7 20 -12q11 -4 24.5 -3.5t26.5 5.5q16 4 23.5 13t7.5 24l-1 5v-1zM919 294q-46 33 -94 68.5t-73 54.5l-24 19l17 -87q-203 -2 -231 -108q-18 -70 42 -154q47 -66 99 -82q11 -4 21 -4q4 5 2.5 8.5t-14.5 19.5q-3 5 -6 7
q-22 29 -36 56t-17.5 54.5t8 48t45 34.5t87.5 16l-17 -87q77 57 191 136zM534 691q-14 -4 -20 -11q-8 -10 -8 -20l1 -6l93 30q-10 8 -30 10q-19 3 -36 -3zM729 486q97 43 97 102v49q0 40 -46 73.5t-125.5 53.5t-173 20t-173 -20t-125.5 -53.5t-46 -73.5v-49q0 -40 46 -73.5
t125.5 -53.5t172.5 -20q5 0 12 0.5t10 0.5q81 48 179 48q15 0 47 -4zM658 626q-9 -16 -29 -22l-2 -1l-20 27h1q11 4 14 11q2 7 -3 18l-108 -35l1 -10q0 -16 -4 -30q-5 -19 -15 -27q-18 -14 -32 -18q-24 -8 -47 -8q-20 0 -47 10q-21 8 -37 27l-35 -11l-11 27l35 11
q-15 37 2 56q21 23 42 29l20 -26l-2 -1q-18 -5 -26.5 -15t-1.5 -32l113 36l1 5q-1 31 12 45q13 15 38 22q22 6 40 6q17 -1 39 -8q22 -9 34 -19l31 10l17 -24l-30 -9q20 -28 10 -44z" />
    <glyph glyph-name="uniE633" unicode="&#xe633;" 
d="M824 520h-55q0 99 -70.5 169t-169.5 70t-169 -70t-70 -169h-88q-16 0 -27.5 -11t-11.5 -27l70 -435q0 -16 11 -27.5t28 -11.5h482q16 0 27.5 11.5t11.5 27.5l70 435q0 16 -11.5 27t-27.5 11zM529 712q80 0 136.5 -56t56.5 -136h-386q1 80 57.5 136t135.5 56zM297 388
q-14 0 -23.5 9.5t-9.5 23t9.5 23.5t23.5 10t23.5 -10t9.5 -23.5t-9.5 -23t-23.5 -9.5zM678 188q-68 -68 -165 -68t-165 68q-7 7 -7 16.5t7 16.5t16.5 7t16.5 -7q54 -55 131.5 -55t132.5 55q7 7 16.5 7t16.5 -7t7 -16.5t-7 -16.5zM729 388q-14 0 -23.5 9.5t-9.5 23t9.5 23.5
t23.5 10t23.5 -10t9.5 -23.5t-9.5 -23t-23.5 -9.5zM729 388z" />
    <glyph glyph-name="uniE634" unicode="&#xe634;" 
d="M543 697q-13 0 -26 -9l-218 -147v-317l218 -147q7 -4 15.5 -6t14.5 -3h5q19 0 32.5 13.5t13.5 32.5v540q0 21 -13.5 32t-27.5 11h-14zM797 627l32 33q6 7 6 17t-6 16q-8 7 -17.5 6.5t-15.5 -6.5l-32 -33q-6 -7 -6 -17t6 -16q8 -7 17 -6.5t16 6.5zM138 495v-225
q0 -19 13 -32.5t33 -13.5h64v317h-64q-20 0 -33 -13.5t-13 -32.5zM656 495q-3 3 -12 3t-16 -6.5t-7 -16.5q0 -9 7 -16t16 -7q20 -5 33 -20.5t13 -34.5t-13 -34.5t-33 -20.5q-9 0 -16 -6.5t-7 -16.5q0 -9 7 -16t16 -7q2 0 6 1.5t6 1.5q35 9 57.5 35.5t22.5 62.5
q0 34 -23 61.5t-57 36.5zM797 145q-7 7 -16 7.5t-17 -7.5q-6 -6 -6 -16t6 -16l32 -33q6 -7 15.5 -7.5t17.5 6.5q6 6 6 16.5t-6 16.5zM851 409h-46q-9 0 -16 -6.5t-7 -17.5q0 -8 7.5 -15.5t15.5 -7.5h46q9 0 16 6.5t7 16.5q0 9 -7 16.5t-16 7.5z" />
    <glyph glyph-name="uniE635" unicode="&#xe635;" 
d="M779 39h-229v227h282v-176q0 -21 -15.5 -36t-37.5 -15zM550 530q-26 7 -33 13l-1 1v1v-1l-1 -1q-11 -10 -23 -13v-208h-297v179q0 22 15.5 37t37.5 15h125q-23 12 -39 26q-37 33 -43 75t23 68q25 22 62 22q54 0 99 -40q25 -22 41 -55q16 33 41 55q44 40 98 40
q38 0 62 -22q29 -26 23.5 -68t-43.5 -75q-15 -14 -38 -26h120q22 0 37.5 -15t15.5 -37v-179h-282v208zM437 666q-28 25 -61 25q-16 0 -24 -7q-7 -6 -7 -17q0 -26 27 -50q18 -16 44.5 -26.5t47.5 -10.5q9 0 14 2q4 8 -7 36t-34 48zM555 581l1 -1h5h7q21 0 47.5 10.5
t44.5 26.5q27 24 27 50q0 11 -7 17q-8 7 -25 7q-32 0 -61 -25q-22 -20 -33 -48t-6 -37zM492 39h-244q-22 0 -37.5 15t-15.5 36v176h297v-227zM492 39z" />
    <glyph glyph-name="uniE636" unicode="&#xe636;" 
d="M758 595l64 -271l1 -8q0 -12 -6 -21q-6 -10 -17 -12l-438 -126l-8 -1q-16 0 -26 15l3 2l396 242q23 14 30 41q6 27 -6 51l-54 106l23 6l8 1q11 0 19 -7t11 -18zM724 491q4 -8 4 -17t-4 -16q-4 -9 -12 -13l-396 -243q-7 -4 -14 -4q-19 0 -28 17l-124 244q-4 8 -4 17
q0 20 16 30l396 242q7 4 15 4q18 0 27 -17zM690 476q1 4 -1 7.5t-6 4.5l-6 -1l-207 -123q-3 -2 -4 -5q-1 -4 0.5 -7.5t5.5 -5.5l6 1l207 123q3 2 5 6zM548 245q1 -4 4 -6h7l225 75l5 5q2 4 1 7q-1 4 -5 6l-7 1l-225 -76q-3 -1 -5 -4q-2 -4 0 -8zM869 441q9 -10 9 -24v-347
q0 -14 -9 -24t-22 -10h-454q-12 0 -21 10t-9 24v53l2 1h4l439 126q25 7 37 31q14 25 7 52l-28 118h23q13 0 22 -10zM245.5 516q-29.5 -18 -36.5 -58q-6 -40 13 -79t54 -54q34 -15 63.5 2.5t36.5 57.5q8 40 -12 79q-19 40 -54 55t-64.5 -3zM265 490q4 -1 5 -4h19
q14 -4 22 -19q2 -4 1 -8q-1 -3 -5 -5l-6 -2q-4 2 -6 6q-4 7 -11 10h-5l18 -33q13 4 25 -3q10 -6 15 -16q6 -11 5 -23q-1 -16 -11 -25l1 -3q1 -3 1 -7q-1 -4 -4 -6l-7 -1q-4 1 -5 5l-2 2q-13 -4 -25 3q-10 6 -15 16q-2 3 -1 7t4 6l7 1q4 -1 5 -4q5 -12 16 -11l-17 34
q-9 -4 -18 -1t-16 11l-7 9q-7 15 -3 30q3 10 10 17q-2 3 -1 8q1 3 5 5zM267 434l8 -6h5l-16 31q-6 -9 0 -21zM322 386q5 8 0 20q-7 11 -16 11zM841 154l-235 -2q-4 0 -6 -3q-3 -3 -3 -7t3 -6q2 -4 6 -3l235 1q4 1 7 3q2 3 2 7t-2 7q-3 3 -7 3z" />
    <glyph glyph-name="uniE637" unicode="&#xe637;" 
d="M648 419l218 216q10 -10 10 -25v-434q0 -13 -9 -23zM169 636q10 9 22 9h652q12 0 22 -9l-348 -277zM167 153q-9 10 -9 23v434q0 15 10 25l219 -216zM517 290l91 90l258 -229q-10 -9 -23 -9h-652q-13 0 -23 9l258 229z" />
    <glyph glyph-name="uniE638" unicode="&#xe638;" 
d="M839 187h-646q-16 0 -28 12t-12 28v451q0 17 12 28.5t28 11.5h646q17 0 29 -11.5t12 -28.5v-451q0 -16 -12 -28t-29 -12zM830 661q0 8 -8 8h-615q-8 0 -8 -8v-421q0 -8 8 -8h615q8 0 8 8v421zM670 526h86v-247h-86v247zM533 602h86v-323h-86v323zM397 449h86v-170h-86
v170zM277 373h86v-94h-86v94zM402 155q0 8 8 8h211q8 0 8 -8v-68h139v-49h-506v49h140v68zM402 155z" />
    <glyph glyph-name="uniE639" unicode="&#xe639;" 
d="M218 -8h96v207h-96v-207zM377 -8h96v304h-96v-304zM556 -8h95v382h-95v-382zM728 -8h95v491h-95v-491zM813 574l37 218l-214 -49l66 -63l-186 -197l-92 84l-267 -278l39 -38l230 240l93 -85l223 236zM813 574z" />
    <glyph glyph-name="uniE63A" unicode="&#xe63a;" 
d="M529 376q50 0 88 48.5t38 100.5h-253q0 -52 38.5 -100.5t88.5 -48.5zM402 525h-254q0 -52 38.5 -100.5t88.5 -48.5t88.5 48.5t38.5 100.5zM782 376q50 0 88.5 48.5t38.5 100.5h-254q0 -52 38.5 -100.5t88.5 -48.5zM802 687q-47 45 -105 45h-336q-35 0 -56.5 -9t-48.5 -36
l-109 -133h763zM785 197h-513v119h-64v-208q0 -24 18.5 -41.5t45.5 -17.5h513q27 0 45.5 17.5t18.5 41.5v208h-64v-119z" />
    <glyph glyph-name="uniE63B" unicode="&#xe63b;" 
d="M867 720h-723q-11 0 -19 -8t-8 -19v-612q0 -11 8 -19t19 -8h723q11 0 19 8t8 19v612q0 11 -8 19t-19 8zM786 665q11 0 19 -8.5t8 -20t-8 -19.5t-19 -8t-19 8t-8 19.5t8 20t19 8.5zM689 665q11 0 19 -8.5t8 -20t-8 -19.5t-19 -8t-19 8t-8 19.5t8 20t19 8.5zM592 665
q11 0 19 -8.5t8 -20t-8 -19.5t-19 -8t-19 8t-8 19.5t8 20t19 8.5zM840 109h-669v451h669v-451zM229 316h30q4 -15 11 -28l-22 -21q-7 -8 -7 -18t7 -17l18 -17q7 -8 17 -8t17 8l21 21q14 -8 29 -13v-29q0 -10 7 -17.5t17 -7.5h24q10 0 17.5 7.5t7.5 17.5v29q15 5 28 12
l20 -20q7 -8 17 -8t18 8l17 17q7 7 7 17t-7 18l-21 20q8 14 12 29h29q10 0 17 7t7 18v24q0 10 -7 17t-17 7h-29q-5 16 -12 30l21 21q7 8 7 18t-7 17l-17 17q-8 8 -18 8t-17 -8l-21 -21q-13 7 -27 11v30q0 10 -7.5 17t-17.5 7h-24q-10 0 -17 -7t-7 -17v-30q-15 -4 -28 -12
l-22 22q-7 8 -17 8t-17 -8l-18 -17q-7 -7 -7 -17t7 -18l22 -22q-7 -13 -11 -29h-30q-9 0 -16.5 -7t-7.5 -17v-24q0 -11 7.5 -18t16.5 -7zM386 426q30 0 51.5 -21.5t21.5 -52t-21.5 -52t-51.5 -21.5t-51 21.5t-21 52t21 52t51 21.5zM386 316q15 0 26 11t11 26t-11 25.5
t-26 10.5t-25.5 -10.5t-10.5 -25.5t10.5 -26t25.5 -11zM673.5 256q9.5 0 16.5 7t7 16.5t-7 16.5t-16.5 7t-16 -7t-6.5 -16.5t6.5 -16.5t16 -7zM573 303q-6 0 -10.5 -4.5t-4.5 -11.5v-15q0 -7 4.5 -11.5t10.5 -4.5h19q3 -10 7 -18l-13 -14q-11 -11 0 -22l10 -11q11 -11 22 0
l14 14q9 -5 19 -8v-19q0 -7 4.5 -11.5t10.5 -4.5h15q7 0 11.5 4.5t4.5 11.5v19q9 3 18 7l13 -13q11 -11 22 0l11 11q11 11 0 22l-13 14q4 8 7 18h19q6 0 10.5 4.5t4.5 11.5v15q0 7 -4.5 11.5t-10.5 4.5h-19q-3 10 -8 19l14 13q11 11 0 23l-11 11q-11 11 -22 0l-14 -14
q-8 4 -17 7v19q0 6 -4.5 10.5t-11.5 4.5h-15q-6 0 -10.5 -4.5t-4.5 -10.5v-19q-10 -3 -19 -8l-14 15q-11 11 -22 0l-10 -11q-11 -12 0 -23l14 -14q-5 -8 -8 -18h-19zM673.5 326q19.5 0 33 -13.5t13.5 -33t-13.5 -33t-33 -13.5t-33 13.5t-13.5 33t13.5 33t33 13.5z" />
    <glyph glyph-name="uniE63C" unicode="&#xe63c;" 
d="M273 661v-44h598v-354h44v398h-642zM192 537h598v-354h45v398h-643v-44zM115 109h638v395h-638v-395zM151 469h567v-324h-567v324zM242.5 336q-1.5 0 -4.5 -3t-5 -10t-2 -15.5t2 -15.5t5 -10.5t4.5 -3.5t4 3.5t5 10.5t2.5 15.5t-2.5 15.5t-5 10t-4 3zM626.5 278
q1.5 0 4 3.5t5 10.5t2.5 15.5t-2.5 15.5t-5 10t-4 3t-4 -3t-5 -10t-2.5 -15.5t2.5 -15.5t5 -10.5t4 -3.5zM317 307q0 43 16.5 79t43.5 56h-200v-271h203q-29 20 -46 56.5t-17 79.5zM242 261q-12 0 -20.5 13.5t-8.5 33t8.5 33t20.5 13.5t20.5 -13.5t8.5 -33t-8.5 -33
t-20.5 -13.5zM551 307q0 -43 -17 -79.5t-45 -56.5h202v271h-200q27 -20 43.5 -56t16.5 -79zM627 354q12 0 20.5 -13.5t8.5 -33t-8.5 -33t-20.5 -13.5t-21 13.5t-9 33t9 33t21 13.5zM443 321v51q5 0 13 -2.5t14 -5.5l5 -3q2 0 3 3l8 18q1 2 1 4q0 6 -16.5 10.5t-27.5 5.5v13
q0 4 -1 5t-5 1h-6q-3 0 -4 -1t-1 -5v-13q-16 -1 -33 -14t-17 -40q0 -6 1.5 -12t3.5 -10.5t6 -8.5t7 -6.5t8.5 -5.5t8 -4t8.5 -3.5t7 -3.5v-54q-8 1 -17 4t-15 6l-6 3q-2 0 -3 -3l-8 -23q-1 -2 -1 -3q0 -5 19.5 -9.5t30.5 -4.5v-13q0 -3 1 -4t4 -1h6q4 0 5 1t1 4v13
q19 3 34 15.5t15 38.5q0 5 -1 10t-2 9t-4 7.5t-4.5 6.5t-6 6t-6 4.5t-6.5 4t-6.5 3.5t-6.5 3.5t-6 2.5zM428 327q-20 9 -20 24q0 17 20 21v-45zM441 240v48q19 -10 19 -25q0 -18 -19 -23z" />
    <glyph glyph-name="uniE63D" unicode="&#xe63d;" 
d="M853 65q-130 -6 -153 43q-14 32 -67 0l-4 -5q-92 -89 -97 -24v9q0 10 -1 15t-3.5 12.5t-8 11t-13.5 3.5h-10h-8h-5q-4 0 -4.5 -0.5t-4 -1.5t-5.5 -1.5t-7.5 -2.5t-11.5 -4q-9 -4 -31 -27t-27 -27q-17 -12 -33.5 -19t-36.5 -9.5t-32.5 -3t-39.5 0t-40 0.5q-6 0 -7 -4l3 -2
q17 1 48 -3t55 -4t45 10q8 3 27 14t35 19.5t35.5 15t33.5 4.5t24.5 -17t11.5 -45q0 -1 2 -1q22 -4 45.5 7.5t41 26t36 24.5t36.5 1t36 -42q3 -7 24 2q27 12 115 15q5 1 1 6q-2 3 -5 3zM185 245l-20 -198l196 56zM783 592q-2 -2 -3 -4l5 6zM607 730q1 2 2 3l3 3zM735 536
q38 45 48 56q15 23 9 53t-27 47l-55 43q-19 17 -50.5 16.5t-50.5 -18.5l-49 -56zM234 257q2 -2 5 -4l54 -43q2 -3 4.5 -5t5.5 -4l54 -43l4 -4q9 -8 21 -7q15 0 24 10q2 4 4 7l275 316q8 9 7 21t-10.5 20t-22 7t-20.5 -11l-261 -299l-17 14l260 299q8 10 7 22t-10.5 19.5
t-22 6.5t-20.5 -10l-261 -299l-17 14l261 299q8 9 6.5 21t-11 20t-22 7t-20.5 -11l-278 -318q-1 -2 -3 -3l-4 -6q-11 -21 8 -36z" />
    <glyph glyph-name="uniE63E" unicode="&#xe63e;" 
d="M581 101q-79 0 -147.5 53t-109.5 142l90 54l-230 100l-32 -257l89 53q43 -97 119.5 -155.5t168.5 -58.5q98 0 179 67.5t121 176.5q-42 -81 -107 -128t-141 -47zM783 499q-43 97 -119.5 155.5t-168.5 58.5q-98 0 -179 -67t-121 -177q42 81 107 128.5t141 47.5
q79 0 147.5 -53t109.5 -143l-90 -54l230 -100l32 257z" />
    <glyph glyph-name="uniE63F" unicode="&#xe63f;" 
d="M830 716h-635q-17 0 -29.5 -12t-12.5 -29v-114l233 -201v-291q0 -14 9 -23t22 -9q5 0 10 2l152 36q16 4 28 19t12 32v236l253 218v95q0 17 -12.5 29t-29.5 12zM824 600l-252 -218v-256q-1 -5 -5 -7l-133 -32v293l-233 201v89h623v-70zM728 574h-431l216 -186z" />
    <glyph glyph-name="uniE640" unicode="&#xe640;" 
d="M313 131v3v-3zM599 564q-13 0 -22.5 -9.5t-9.5 -22.5l1 -399q0 -13 9 -22t22.5 -9t22.5 9t9 22v399q0 13 -9.5 22.5t-22.5 9.5zM504 723q-13 0 -22.5 -9.5t-9.5 -22.5v-33h-183h-3h-4h-4h-5h-58q-13 0 -22.5 -9.5t-9.5 -22.5t9.5 -22.5t22.5 -9.5h35v-490v-34
q0 -26 18.5 -45t44.5 -19h32h350h32q26 0 44.5 18.5t18.5 44.5v463q0 13 -9.5 22.5t-22.5 9.5t-22.5 -9.5t-9.5 -22.5l1 -405q-1 -35 -13.5 -45.5t-50.5 -10.5l33 -1h-361l42 1q-38 0 -50.5 11t-13.5 49l1 -61h-1v524h188h3q1 0 3 1h26q1 -1 2.5 -1t3.5 1h282q13 0 22 9
t9 22.5t-9 22.5t-22 9h-254v33q0 13 -9 22.5t-23 9.5h-31zM727 122v-52h-1zM440 564q-13 0 -22.5 -9.5t-9.5 -22.5l1 -399q0 -13 9 -22t22.5 -9t22.5 9t9 22v399q0 13 -9.5 22.5t-22.5 9.5z" />
    <glyph glyph-name="uniE641" unicode="&#xe641;" 
d="M269 658v-46h594v-353h46v399h-640zM187 530h594v-353h46v399h-640v-46zM115 105h630v394h-635v-394h5zM151 463h558v-322h-558v322zM236.5 333q-1.5 0 -4 -3.5t-5 -10.5t-2.5 -15.5t2.5 -15.5t5 -10t4 -3t4 3t5 10t2.5 15.5t-2.5 15.5t-5 10.5t-4 3.5zM620.5 275
q1.5 0 4.5 3t5 10t2 15.5t-2 15.5t-5 10.5t-4.5 3.5t-4 -3.5t-5 -10.5t-2.5 -15.5t2.5 -15.5t5 -10t4 -3zM312 304q0 85 59 129h-194v-261h199q-29 20 -46.5 54.5t-17.5 77.5zM236 257q-12 0 -20.5 13.5t-8.5 33t8.5 33t20.5 13.5t21 -13.5t9 -33t-9 -33t-21 -13.5zM545 304
q0 -44 -16.5 -78.5t-44.5 -53.5h200v261h-195q56 -42 56 -129zM621 350q12 0 20.5 -13.5t8.5 -33t-8.5 -33t-20.5 -13.5t-20.5 13.5t-8.5 33t8.5 33t20.5 13.5zM437 317v52q6 0 13.5 -3t13.5 -6l5 -3q2 0 3 3l9 19q1 1 1 3q0 6 -17 10.5t-28 5.5v14q0 3 -1 4t-5 1h-5
q-4 0 -5 -1t-1 -4v-14q-15 -1 -32.5 -14t-17.5 -39q0 -7 1.5 -13t3.5 -10t7 -8l6 -8q3 -2 8.5 -5t8 -4t8.5 -3.5t7 -2.5v-55q-8 1 -17 4t-15 6l-6 3q-1 0 -2 -2l-9 -24v-2q0 -6 19.5 -10.5t29.5 -4.5v-13q0 -3 1 -4t5 -1h5q4 0 5 1t1 4v13q19 3 34.5 16t15.5 38q0 6 -1 10.5
t-2.5 8.5t-4 8t-4.5 6.5t-6 5.5l-6 5l-7 3.5t-6.5 3.5t-6.5 3.5t-6 2.5zM422 323q-19 9 -19 24q0 17 19 22v-46zM435 236v48q19 -10 19 -25q0 -18 -19 -23z" />
    <glyph glyph-name="uniE642" unicode="&#xe642;" 
d="M807 740h-421q-33 0 -55 -22t-22 -55v-421q0 -33 22 -54.5t55 -21.5h421q33 0 54.5 21.5t21.5 54.5v421q0 33 -21.5 55t-54.5 22zM769 396h-115v-115h-115v115h-115v114h115v115h115v-115h115v-114zM654 128q0 -39 -38 -39h-345q-38 0 -38 39v344v8v9q0 2 0.5 6.5t1 5.5
t2.5 3.5t4 3.5t5.5 1.5t8.5 0.5h16v77h-38q-32 0 -54.5 -25t-22.5 -58v-412q0 -32 23.5 -55.5t56.5 -23.5h412q33 0 57.5 22t24.5 54v39h-76z" />
    <glyph glyph-name="uniE643" unicode="&#xe643;" 
d="M833 515h-51q0 98 -71 169t-170 71t-169.5 -71t-70.5 -169h-87q-16 0 -26 -10t-10 -26l66 -436q3 -17 14 -28.5t27 -11.5h482q15 0 26.5 12t14.5 28l66 431q0 16 -12.5 28.5t-28.5 12.5zM541 709q80 0 137.5 -57.5t57.5 -136.5h-384q0 79 55 136.5t134 57.5zM310 383
q-14 0 -23.5 10t-9.5 23.5t9.5 23t23.5 9.5t23.5 -9.5t9.5 -23t-9.5 -23.5t-23.5 -10zM691 183q-69 -68 -165.5 -68t-164.5 68q-7 7 -6.5 17.5t7.5 17.5q7 6 16 5.5t16 -7.5q55 -54 131.5 -54.5t132.5 54.5q7 7 16 7.5t16 -5.5q7 -7 7.5 -17.5t-6.5 -17.5zM742 383
q-14 0 -23.5 10t-9.5 23.5t9.5 23t23.5 9.5t23.5 -9.5t9.5 -23t-9.5 -23.5t-23.5 -10z" />
    <glyph glyph-name="uniE644" unicode="&#xe644;" 
d="M769 420q2 -91 -50 -167q-5 -7 -14 -19l-7 -7q-8 -9 -12 -14q-1 0 -8 -7q-9 -8 -13 -12q-1 -1 -3.5 -2.5t-3.5 -2.5q-9 -7 -17 -12l-2 -2l-1 -1q-13 -8 -21 -12h-1v-1q-37 -19 -77 -27h-1q-14 -3 -25 -4h-6q-99 -9 -182 47l42 62h-217l83 -200l42 63q97 -65 214 -63h1h2
q4 0 22 1h5l3 1q13 1 32 5h3q52 10 100 35q1 1 2 1q13 7 26 16q1 0 3.5 1.5t3.5 2.5l21 15q5 4 9 8q9 7 17 15q10 9 11 10l4 4q3 3 14 16l6 6q13 16 22 30q65 98 63 216q-1 19 -14.5 32t-31.5 12q-19 0 -32 -13.5t-12 -32.5zM692 726q-97 65 -213 63h-2h-2q-11 0 -26 -2h-4
q-90 -9 -165 -58q-1 0 -2 -1t-2 -1q-9 -6 -23 -17q-7 -5 -8 -6q-7 -6 -18 -17q-1 -1 -4.5 -4t-5.5 -5l-3 -2q-1 -2 -2 -2q-2 -3 -12 -14q-1 -2 -3.5 -5t-4.5 -4q-8 -10 -17 -24q-1 -1 -2 -2.5t-2 -2.5q-65 -99 -63 -216q1 -19 14.5 -32t32 -12.5t31.5 14t12 32.5
q-2 91 50 166q7 11 15 20q1 2 5 6q8 10 13 15q1 1 7 6q8 8 15 13q2 2 5 4q10 8 18 14h1l1 1q58 38 127 45h1q101 10 186 -47l-42 -62h217l-83 199z" />
    <glyph glyph-name="uniE645" unicode="&#xe645;" 
d="M387 582h453q23 0 27 6.5t4 43.5v9q0 32 -4.5 40t-28.5 8h-448q-32 0 -36.5 -7t-4.5 -46q0 -40 4.5 -47t33.5 -7zM210 689h-6q-21 0 -36.5 -15.5t-15.5 -38t15.5 -38.5t36.5 -16h6q21 0 36 16t15 38.5t-15 38t-36 15.5zM835 438h-453q-25 0 -29 -7t-4 -47t4 -47t28 -7
h454q27 0 31.5 6.5t4.5 44.5v17q0 10 0.5 13.5t-0.5 9.5t-1 7.5t-2.5 4.5t-4 3t-7 1t-8.5 1h-13zM210 438h-6q-21 0 -36.5 -15.5t-15.5 -38t15.5 -38t36.5 -15.5h6q21 0 36 15.5t15 38t-15 38t-36 15.5zM841 186h-455q-25 0 -30.5 -7.5t-5.5 -47.5q0 -38 5.5 -45t30.5 -7
h455q23 0 26.5 6.5t3.5 47.5q0 40 -4 46.5t-26 6.5zM210 187h-6q-21 0 -36.5 -16t-15.5 -38.5t15.5 -38t36.5 -15.5h6q21 0 36 15.5t15 38t-15 38.5t-36 16z" />
    <glyph glyph-name="uniE646" unicode="&#xe646;" 
d="M555 694v-358h-364q9 -131 107 -221t233 -90q92 0 170.5 44.5t124 122t45.5 168.5q0 133 -91.5 229t-224.5 105zM514 743q-99 0 -182 -47t-131 -129t-48 -179h361v355z" />
    <glyph glyph-name="uniE647" unicode="&#xe647;" 
d="M269 653v-46h594v-354h46v400h-640zM187 525h594v-353h46v399h-640v-46zM120 105h620v384h-630v-384h10zM151 458h558v-322h-558v322zM291 298q0 81 60 124h-174v-250h179q-65 45 -65 126zM566 300q0 -89 -57 -128h175v250h-175q57 -41 57 -122zM438 310v51q5 0 12.5 -2
t13.5 -5l5 -2q3 0 5 4q6 17 8 21q4 4 -17 10q-16 4 -27 5v15q0 4 -1 4.5t-4 0.5h-11q-3 0 -4 -0.5t-1 -4.5v-15q-16 -1 -33.5 -13t-17.5 -39q0 -39 51 -61v-46q-7 1 -15.5 3.5t-14 4.5t-6.5 2t-1 -2l-9 -23v-3q0 -5 17.5 -9t28.5 -4v-15q0 -4 1 -4.5t4 -0.5h11q3 0 4 0.5
t1 4.5v15q56 10 56 51q0 9 -3 16.5t-7 12.5t-11.5 10t-11.5 7t-13 6t-10 5zM417 315q-20 9 -20 25t20 21v-46zM438 233v46l4 -2q5 -2 7.5 -4t6.5 -4.5t5.5 -6.5t1.5 -9q0 -2 -0.5 -4.5t-1.5 -4.5t-3.5 -3.5t-4 -2.5t-4.5 -2t-4 -1t-4 -1z" />
    <glyph glyph-name="uniE648" unicode="&#xe648;" 
d="M381 74q-115 10 -188 46t-73 87v-66q0 -30 34 -62q93 -87 274 -87h15q-27 25 -37.5 39t-24.5 43zM361 146q-10 34 -10 56q0 5 5 26q-236 27 -236 112v-56q0 -48 67.5 -86t173.5 -52zM366 294q11 29 19 43.5t27 33.5q-131 5 -211.5 39t-80.5 89v-82q0 -47 66.5 -77.5
t179.5 -45.5zM458 602l-107 -36q9 -12 31.5 -15t45.5 5q12 3 20 13.5t9 18.5l1 8v6zM904 284q-47 33 -94.5 68.5t-71.5 55.5l-24 20l21 -88q-203 -2 -232 -108q-19 -70 40 -154q46 -65 98 -81q11 -4 21 -4q5 4 3 8t-14 19q-4 5 -6 8q-23 28 -36.5 55.5t-16.5 55t9 48.5
t46 35t88 16l-21 -87l22 15q21 16 68.5 49t99.5 69zM499 673q-3 -4 -4.5 -11t-1.5 -12l1 -5l87 28q-14 12 -27.5 16t-22 2.5t-16.5 -6t-11 -7.5zM719 479q50 22 74 47.5t24 69.5q0 51 -47.5 92.5t-127 64.5t-174.5 23q-96 0 -174 -20t-126 -60t-48 -94q0 -46 46 -85
t125 -61.5t172 -22.5h26q87 51 179 51q11 0 51 -5zM645 618q-5 -6 -10 -11t-9 -8t-7 -5l-5 -2l-2 -1l-19 30l2 1q11 3 13 11q2 7 -1 15l-108 -36v-10q1 -31 -16.5 -54t-39.5 -28q-11 -4 -29.5 -5.5t-49 7.5t-49.5 34l-31 -11l-15 31l36 10q-13 33 0 56.5t41 30.5l20 -25
q-17 -5 -25.5 -15.5t-0.5 -35.5l112 37l1 5q-1 61 51 75q16 5 22.5 6t21.5 0t31.5 -10t36.5 -26l31 11l21 -27l-31 -10q17 -24 8 -40z" />
    <glyph glyph-name="uniE649" unicode="&#xe649;" 
d="M767 568h1h-511h510zM512 286l-17 15l-56 51l-162 -153h470l-162 153l-56 -51zM253 525v-297l159 148zM771 228v297l-159 -149zM512 329l255 239h-510zM512 329z" />
    <glyph glyph-name="uniE64A" unicode="&#xe64a;" 
d="M1024 482v206q0 27 -18.5 45.5t-45.5 18.5h-176q7 0 11.5 -4.5t4.5 -11.5t-4.5 -11.5t-11.5 -4.5t-11.5 4.5t-4.5 11.5t4.5 11.5t11.5 4.5h-720q-27 0 -45.5 -18.5t-18.5 -45.5v-208q40 0 68 -28t28 -68t-28 -68t-68 -28v-208q0 -27 18.5 -45.5t45.5 -18.5h720
q-7 0 -11.5 4.5t-4.5 11.5t4.5 11.5t11.5 4.5t11.5 -4.5t4.5 -11.5t-4.5 -11.5t-11.5 -4.5h176q27 0 45.5 18.5t18.5 45.5v210q-40 0 -68 28t-28 68t28 68t68 28zM640 464v-64h-160v-64h160v-64h-160v-96h-64v96h-160v64h160v64h-160v64h64l-64 96h64l64 -96h128l64 96h64
l-64 -96h64zM784 80q-7 0 -11.5 4.5t-4.5 11.5t4.5 11.5t11.5 4.5t11.5 -4.5t4.5 -11.5t-4.5 -11.5t-11.5 -4.5zM784 144q-7 0 -11.5 4.5t-4.5 11.5t4.5 11.5t11.5 4.5t11.5 -4.5t4.5 -11.5t-4.5 -11.5t-11.5 -4.5zM784 208q-7 0 -11.5 4.5t-4.5 11.5t4.5 11.5t11.5 4.5
t11.5 -4.5t4.5 -11.5t-4.5 -11.5t-11.5 -4.5zM784 272q-7 0 -11.5 4.5t-4.5 11.5t4.5 11.5t11.5 4.5t11.5 -4.5t4.5 -11.5t-4.5 -11.5t-11.5 -4.5zM784 336q-7 0 -11.5 4.5t-4.5 11.5t4.5 11.5t11.5 4.5t11.5 -4.5t4.5 -11.5t-4.5 -11.5t-11.5 -4.5zM784 400q-7 0 -11.5 4.5
t-4.5 11.5t4.5 11.5t11.5 4.5t11.5 -4.5t4.5 -11.5t-4.5 -11.5t-11.5 -4.5zM784 464q-7 0 -11.5 4.5t-4.5 11.5t4.5 11.5t11.5 4.5t11.5 -4.5t4.5 -11.5t-4.5 -11.5t-11.5 -4.5zM784 528q-7 0 -11.5 4.5t-4.5 11.5t4.5 11.5t11.5 4.5t11.5 -4.5t4.5 -11.5t-4.5 -11.5
t-11.5 -4.5zM784 592q-7 0 -11.5 4.5t-4.5 11.5t4.5 11.5t11.5 4.5t11.5 -4.5t4.5 -11.5t-4.5 -11.5t-11.5 -4.5zM784 656q-7 0 -11.5 4.5t-4.5 11.5t4.5 11.5t11.5 4.5t11.5 -4.5t4.5 -11.5t-4.5 -11.5t-11.5 -4.5z" />
  </font>
</defs>
</svg>
